<?xml version="1.0" encoding="UTF-8"?>
<svg id="_레이어_2" data-name="레이어 2" xmlns="http://www.w3.org/2000/svg" viewBox="0 0 571.57 116.77">
  <defs>
    <style>
      .cls-1 {
        fill: #fff;
      }
    </style>
  </defs>
  <g id="_레이어_1-2" data-name="레이어 1">
    <path class="cls-1" d="M0,0v84.16c0,18.01,14.6,32.61,32.61,32.61,10.22,0,19.33-4.7,25.31-12.06,5.98,7.35,15.09,12.06,25.31,12.06s19.32-4.7,25.3-12.05c5.98,7.35,15.09,12.05,25.3,12.05s19.38-4.73,25.36-12.12c5.98,7.39,15.11,12.12,25.36,12.12s19.34-4.7,25.32-12.06c5.98,7.36,15.1,12.06,25.32,12.06s19.32-4.69,25.3-12.04c5.98,7.34,15.09,12.04,25.3,12.04s19.32-4.69,25.3-12.04c5.98,7.34,15.09,12.04,25.3,12.04s19.34-4.7,25.32-12.06c5.98,7.36,15.1,12.06,25.32,12.06s19.38-4.73,25.36-12.12c5.98,7.39,15.11,12.12,25.36,12.12s19.32-4.7,25.3-12.05c5.98,7.35,15.09,12.05,25.3,12.05s19.33-4.7,25.31-12.06c5.98,7.35,15.09,12.06,25.31,12.06,18.01,0,32.61-14.6,32.61-32.61V0H0Z"/>
  </g>
</svg>