<?xml version="1.0" encoding="UTF-8"?>
<svg id="_레이어_2" xmlns="http://www.w3.org/2000/svg" version="1.1" viewBox="0 0 415 415">
  <!-- Generator: Adobe Illustrator 29.5.1, SVG Export Plug-In . SVG Version: 2.1.0 Build 141)  -->
  <defs>
    <style>
      .st0 {
        fill: #8eb9da;
      }

      .st1 {
        fill: #fff;
      }

      .st2 {
        fill: #7bc0d6;
      }
    </style>
  </defs>
  <circle class="st1" cx="207.5" cy="207.5" r="207.5"/>
  <g>
    <g>
      <path class="st0" d="M204.2,280.9h0c-1.6,0-3-1.6-3-3.6V73.9c0-2,1.3-3.6,3-3.6h0c1.6,0,3,1.6,3,3.6v203.5c0,2-1.3,3.6-3,3.6Z"/>
      <path class="st2" d="M77.8,211.8c28.3,12.1,82.5,28.9,116.3,35.9,3.3.7,6.3-2.5,5.5-6-4.5-19.6-9.9-46.3-10.2-73-.5-35.9-.4-47.5,10.2-76.9.9-2.6-.4-5.6-2.9-6.4l-54.2-18.8c-3.3-1.2-6.5,1.7-6.1,5.3,1.8,13-1.5,33-17.6,75-8.7,22.6-27.6,45.9-41.7,56.2-3,2.2-2.6,7.1.9,8.6h-.2Z"/>
      <path class="st0" d="M215.7,96.4c-1.3-1.3-3.2,0-2.7,1.8,5.8,17.7,12.2,44.9,10.8,78.1-1.3,29.3-8.1,53-14.1,69.1-.6,1.6,1.2,3.1,2.5,2.1,11.5-9.1,33-23.3,63.1-27.5,30.8-4.3,55.9,3.9,70.3,10.5,1.7.8,3.1-1.5,1.8-2.9-43.9-43.7-87.9-87.5-131.7-131.2h0Z"/>
      <path class="st2" d="M44.1,237.2c-5.3-2.4-10.1,4.3-6.4,9,23.6,30.9,79.3,89.5,165.2,91.5,79.3,1.9,154.1-45.3,193.5-120.8,2.7-5.2-3-10.9-7.8-7.7-37,24.1-106.8,60.4-198.9,60.1-62.1-.2-112.3-17-145.5-32.1h0Z"/>
    </g>
    <g>
      <ellipse class="st1" cx="94.2" cy="337" rx="25.3" ry="27"/>
      <ellipse class="st1" cx="135.6" cy="358.8" rx="40.9" ry="43.5"/>
      <ellipse class="st1" cx="185.1" cy="354.9" rx="17.6" ry="18.8"/>
      <ellipse class="st1" cx="237.4" cy="336.6" rx="39.6" ry="42.1" transform="translate(-45.6 37.3) rotate(-8.2)"/>
      <ellipse class="st1" cx="291.6" cy="337.4" rx="39.6" ry="42.1"/>
    </g>
  </g>
</svg>